<svg width="23" height="23" viewBox="0 0 23 23" fill="none" xmlns="http://www.w3.org/2000/svg">
<path d="M19.4312 4.67858L19.8394 3.08227L21.1967 2.14802L19.6003 1.73976L18.6661 0.382537L18.2578 1.97884L16.9006 2.91309L18.4969 3.32136L19.4312 4.67858ZM15.4514 5.66434L13.5829 2.94989L12.7664 6.14251L10.052 8.01101L13.2446 8.82754L15.1131 11.542L15.9296 8.34937L18.6441 6.48086L15.4514 5.66434ZM20.005 7.90061L19.5967 9.49692L18.2395 10.4312L19.8358 10.8394L20.77 12.1967L21.1783 10.6003L22.5355 9.6661L20.9392 9.25783L20.005 7.90061Z" fill="#FFD233"/>
<path d="M9 5C7.21997 5 5.47991 5.52784 3.99987 6.51677C2.51983 7.50571 1.36628 8.91131 0.685088 10.5558C0.00389951 12.2004 -0.17433 14.01 0.172937 15.7558C0.520203 17.5016 1.37737 19.1053 2.63604 20.364C3.89472 21.6226 5.49836 22.4798 7.24419 22.8271C8.99002 23.1743 10.7996 22.9961 12.4442 22.3149C14.0887 21.6337 15.4943 20.4802 16.4832 19.0001C17.4722 17.5201 18 15.78 18 14C18 13.54 17.96 13.08 17.9 12.64C17.4003 13.3407 16.7401 13.9115 15.9746 14.3047C15.2091 14.6978 14.3606 14.902 13.5 14.9C12.3552 14.9 11.24 14.5364 10.3152 13.8617C9.39041 13.1869 8.70385 12.2358 8.35454 11.1456C8.00523 10.0554 8.01123 8.88243 8.37167 7.79586C8.73211 6.70928 9.42836 5.76528 10.36 5.1C9.92 5.04 9.46 5 9 5Z" fill="#FFD233"/>
</svg>
